<svg width="64" height="64" viewBox="0 0 64 64" fill="none" xmlns="http://www.w3.org/2000/svg">
<circle cx="32" cy="32" r="32" fill="black"/>
<path d="M29.064 21.536V36.832C29.064 39.2 28.392 41.024 27.048 42.304C25.7253 43.584 23.9333 44.224 21.672 44.224C19.304 44.224 17.4053 43.552 15.976 42.208C14.5467 40.864 13.832 38.9547 13.832 36.48H19.272C19.272 37.4187 19.464 38.1333 19.848 38.624C20.232 39.0933 20.7867 39.328 21.512 39.328C22.1733 39.328 22.6853 39.1147 23.048 38.688C23.4107 38.2613 23.592 37.6427 23.592 36.832V21.536H29.064Z" fill="white"/>
<path d="M43.008 44L35.456 34.08V44H29.984V21.536H35.456V31.392L42.944 21.536H49.376L40.672 32.544L49.696 44H43.008Z" fill="white"/>
<circle cx="32" cy="32" r="29.5" stroke="#5C62EC"/>
</svg>
